<?xml version="1.0" encoding="utf-8"?>
<!-- Generator: Adobe Illustrator 21.1.0, SVG Export Plug-In . SVG Version: 6.00 Build 0)  -->
<svg version="1.1" id="Capa_1" xmlns="http://www.w3.org/2000/svg" xmlns:xlink="http://www.w3.org/1999/xlink" x="0px" y="0px"
	 viewBox="0 0 50 50" style="enable-background:new 0 0 50 50;" xml:space="preserve">
<style type="text/css">
	.st0{filter:url(#filter-1);}
	.st1{fill:#FFFFFF;}
	.st2{fill:#C8C8C8;}
</style>
<filter  filterUnits="objectBoundingBox" height="128.3%" id="filter-1" width="128.3%" x="-9.1%" y="-9.1%">
	<feOffset  dx="2" dy="2" in="SourceAlpha" result="shadowOffsetOuter1"></feOffset>
	<feGaussianBlur  in="shadowOffsetOuter1" result="shadowBlurOuter1" stdDeviation="2"></feGaussianBlur>
	
		<feColorMatrix  in="shadowBlurOuter1" result="shadowMatrixOuter1" type="matrix" values="0 0 0 0 0   0 0 0 0 0   0 0 0 0 0  0 0 0 0.1 0">
		</feColorMatrix>
	<feMerge>
		<feMergeNode  in="shadowMatrixOuter1"></feMergeNode>
		<feMergeNode  in="SourceGraphic"></feMergeNode>
	</feMerge>
</filter>
<title>icon-white</title>
<desc>Created with Sketch.</desc>
<g id="Page-1">
	<g id="Catalog" transform="translate(-652.000000, -634.000000)">
		<g id="products" transform="translate(132.000000, 624.000000)">
			<g id="line-1">
				<g id="product-card-hover" transform="translate(300.000000, 0.000000)" class="st0">
					<g id="icon-white_1_" transform="translate(222.000000, 12.000000)">
						<g>
							<circle id="Oval-Copy-6_1_" class="st1" cx="21" cy="21" r="21"/>
							<path id="Shape-Copy-2_1_" class="st2" d="M30,29.1l-1.1-13.6c0-0.3-0.3-0.5-0.6-0.5h-3v-1.1c0-1.6-1.4-2.9-3-2.9h-2.4
								c-1.7,0-3,1.3-3,2.9V15h-3c-0.3,0-0.6,0.2-0.6,0.5L12,29.1c0,0.5,0.1,1,0.5,1.3s0.8,0.6,1.3,0.6h14.4c0.5,0,1-0.2,1.3-0.6
								C29.9,30.1,30,29.6,30,29.1z M18,14.3c0-1.2,0.8-2.3,1.8-2.3h2.4c1,0,1.8,1,1.8,2.3V15h-6V14.3z"/>
						</g>
					</g>
				</g>
			</g>
		</g>
	</g>
</g>
</svg>
